# xmcd
#
# Track frame offsets:
# 150
# 15882
# 67895
# 85019
# 120881
# 150854
# 168659
# 198858
#
# Disc length: 2831 seconds
#
#
# Revision: 0
# Processed by: cddbd v1.5.2PL0 Copyright (c) Steve Scherf et al.
# Submitted via: Nero 7, 11, 10, 0 
#
DISCID=470b0d08
DTITLE=Larry Davis - Live At J.B. Hutto's
DYEAR=1980
DGENRE=Blues
TTITLE0=Everyday I Have The Blues
TTITLE1=Stormy Monday, Cummins Prison Farm, Sweet Sixteen
TTITLE2=Just A Little Bit
TTITLE3=Goin' Down Slow
TTITLE4=Walking The Back Street And Crying
TTITLE5=Summer Time
TTITLE6=As The Years Go Passing By
TTITLE7=The Thrill Is Gone
EXTD=
EXTT0=Everyday I Have The Blues
EXTT1=Stormy Monday, Cummins Prison Farm, Sweet Sixteen
EXTT2=Just A Little Bit
EXTT3=Goin' Down Slow
EXTT4=Walking The Back Street And Crying
EXTT5=Summer Time
EXTT6=As The Years Go Passing By
EXTT7=The Thrill Is Gone
PLAYORDER=
